<?xml version="1.0" encoding="UTF-8" standalone="no"?>
<svg width="476px" height="122px" viewBox="0 0 476 122" version="1.1" xmlns="http://www.w3.org/2000/svg" xmlns:xlink="http://www.w3.org/1999/xlink" xmlns:sketch="http://www.bohemiancoding.com/sketch/ns">
    <!-- Generator: Sketch 3.3.3 (12072) - http://www.bohemiancoding.com/sketch -->
    <title>merge</title>
    <desc>Created with Sketch.</desc>
    <defs>
        <rect id="path-1" x="0" y="17" width="25.3211991" height="60"></rect>
    </defs>
    <g id="Page-1" stroke="none" stroke-width="1" fill="none" fill-rule="evenodd" sketch:type="MSPage">
        <g id="merge" sketch:type="MSLayerGroup" transform="translate(0.000000, -12.000000)">
            <g id="Rectangle-1-+-Rectangle-1-Copy-2-+-Rectangle-1-Copy-3-Copy" transform="translate(238.000000, 85.500000) scale(-1, 1) translate(-238.000000, -85.500000) translate(0.000000, 37.000000)">
                <path d="M25.5,47 L229.5,47" id="Line" stroke="#50E3C2" stroke-width="40" stroke-linecap="square" sketch:type="MSShapeGroup"></path>
                <path d="M258.5,57 C258.5,57 324.568955,57.8604452 368.315681,61.0771108 C392.569072,62.8604452 462.500351,72 462.500351,72" id="Line-Copy-2" stroke="#50E3C2" stroke-width="20" stroke-linecap="square" sketch:type="MSShapeGroup"></path>
                <path d="M258.5,22 C258.5,22 324.568955,22.8604452 368.315681,26.0771108 C392.569072,27.8604452 462.500351,37 462.500351,37" id="Line-Copy-3" stroke="#50E3C2" stroke-width="20" stroke-linecap="square" sketch:type="MSShapeGroup" transform="translate(360.500175, 29.500000) scale(1, -1) translate(-360.500175, -29.500000) "></path>
                <rect id="Rectangle-1-Copy-2" fill="#BD0FE1" sketch:type="MSShapeGroup" x="230" y="18" width="25.3211991" height="57"></rect>
                <rect id="Rectangle-1-Copy-7" fill="#40C8A9" sketch:type="MSShapeGroup" transform="translate(460.678216, 22.000000) rotate(-8.000000) translate(-460.678216, -22.000000) " x="448.017616" y="2" width="25.3211991" height="40"></rect>
                <rect id="Rectangle-1-Copy-8" fill="#40C8A9" sketch:type="MSShapeGroup" transform="translate(460.678216, 75.000000) scale(1, -1) rotate(-8.000000) translate(-460.678216, -75.000000) " x="448.017616" y="55" width="25.3211991" height="40"></rect>
                <g id="Rectangle-1-Copy-3">
                    <use fill="#40C8A9" fill-rule="evenodd" sketch:type="MSShapeGroup" xlink:href="#path-1"></use>
                    <use fill="none" xlink:href="#path-1"></use>
                </g>
            </g>
            <text sketch:type="MSTextLayer" font-family="Hack" font-size="35.8484211" font-weight="bold" sketch:alignment="middle" fill="#50E3C2">
                <tspan x="178.560417" y="33">merge</tspan>
            </text>
        </g>
    </g>
</svg>